<svg width="62" height="24" viewBox="0 0 62 24" fill="none" xmlns="http://www.w3.org/2000/svg">
<path d="M0.0400001 16.76V7.46C0.0400001 5.26 0.6 3.65 1.72 2.63C2.86 1.59 4.37 1.07 6.25 1.07C8.15 1.07 9.67 1.56 10.81 2.54C11.95 3.5 12.52 4.74 12.52 6.26C12.52 6.94 12.19 7.28 11.53 7.28C10.89 7.28 10.56 7.03 10.54 6.53C10.26 4.11 8.84 2.9 6.28 2.9C3.44 2.9 2.02 4.42 2.02 7.46V16.76C2.02 18.3 2.39 19.45 3.13 20.21C3.87 20.97 4.92 21.35 6.28 21.35C7.64 21.35 8.69 20.97 9.43 20.21C10.17 19.45 10.54 18.3 10.54 16.76V13.19H6.52C6.3 13.19 6.12 13.11 5.98 12.95C5.86 12.77 5.8 12.56 5.8 12.32C5.8 12.1 5.86 11.91 5.98 11.75C6.12 11.57 6.3 11.48 6.52 11.48H11.8C12.28 11.48 12.52 11.74 12.52 12.26V16.76C12.52 18.98 11.95 20.61 10.81 21.65C9.69 22.67 8.18 23.18 6.28 23.18C4.38 23.18 2.86 22.67 1.72 21.65C0.6 20.61 0.0400001 18.98 0.0400001 16.76ZM14.8605 22.16C14.8605 22.06 14.8705 21.99 14.8905 21.95L21.1605 1.58C21.3005 1.12 21.6905 0.889999 22.3305 0.889999C22.9705 0.889999 23.3705 1.12 23.5305 1.58L29.7705 21.95C29.7705 21.97 29.7705 22 29.7705 22.04C29.7905 22.08 29.8005 22.11 29.8005 22.13C29.8005 22.37 29.6705 22.58 29.4105 22.76C29.1505 22.92 28.8805 23 28.6005 23C28.2205 23 27.9705 22.83 27.8505 22.49L26.4705 17.87H18.1605L16.7805 22.49C16.7005 22.83 16.4405 23 16.0005 23C15.7205 23 15.4605 22.92 15.2205 22.76C14.9805 22.6 14.8605 22.4 14.8605 22.16ZM18.6705 16.16H25.9605L22.3305 4.07L18.6705 16.16ZM32.7116 22.25V1.79C32.7116 1.59 32.7916 1.42 32.9516 1.28C33.1316 1.14 33.3516 1.07 33.6116 1.07H38.9216C40.8216 1.07 42.3416 1.59 43.4816 2.63C44.6216 3.65 45.1916 5.26 45.1916 7.46V16.58C45.1916 18.8 44.6216 20.43 43.4816 21.47C42.3416 22.49 40.8216 23 38.9216 23H33.6116C33.3516 23 33.1316 22.93 32.9516 22.79C32.7916 22.63 32.7116 22.45 32.7116 22.25ZM34.6916 21.17H38.9216C40.2816 21.17 41.3316 20.79 42.0716 20.03C42.8316 19.25 43.2116 18.1 43.2116 16.58V7.46C43.2116 5.94 42.8316 4.8 42.0716 4.04C41.3316 3.28 40.2816 2.9 38.9216 2.9H34.6916V21.17ZM49.2588 16.76V7.46C49.2588 5.26 49.8188 3.65 50.9388 2.63C52.0788 1.59 53.5888 1.07 55.4688 1.07C57.3688 1.07 58.8888 1.56 60.0288 2.54C61.1688 3.5 61.7388 4.74 61.7388 6.26C61.7388 6.94 61.4088 7.28 60.7488 7.28C60.1088 7.28 59.7788 7.03 59.7588 6.53C59.4788 4.11 58.0588 2.9 55.4988 2.9C52.6588 2.9 51.2388 4.42 51.2388 7.46V16.76C51.2388 18.3 51.6088 19.45 52.3488 20.21C53.0888 20.97 54.1388 21.35 55.4988 21.35C56.8588 21.35 57.9088 20.97 58.6488 20.21C59.3888 19.45 59.7588 18.3 59.7588 16.76V13.19H55.7388C55.5188 13.19 55.3388 13.11 55.1988 12.95C55.0788 12.77 55.0188 12.56 55.0188 12.32C55.0188 12.1 55.0788 11.91 55.1988 11.75C55.3388 11.57 55.5188 11.48 55.7388 11.48H61.0188C61.4988 11.48 61.7388 11.74 61.7388 12.26V16.76C61.7388 18.98 61.1688 20.61 60.0288 21.65C58.9088 22.67 57.3988 23.18 55.4988 23.18C53.5988 23.18 52.0788 22.67 50.9388 21.65C49.8188 20.61 49.2588 18.98 49.2588 16.76Z" fill="white"/>
</svg>
