<svg width="28" height="22" viewBox="0 0 28 22" fill="none" xmlns="http://www.w3.org/2000/svg">
<path d="M0.28 21.22V0.819999C0.28 0.579999 0.37 0.399999 0.55 0.279999C0.73 0.14 0.94 0.0699998 1.18 0.0699998H11.86C12.36 0.0699998 12.61 0.36 12.61 0.939999C12.61 1.2 12.54 1.43 12.4 1.63C12.28 1.81 12.1 1.9 11.86 1.9H2.26V10.15H6.97C7.21 10.15 7.39 10.24 7.51 10.42C7.65 10.58 7.72 10.79 7.72 11.05C7.72 11.59 7.47 11.86 6.97 11.86H2.26V20.17H11.86C12.08 20.17 12.26 20.26 12.4 20.44C12.54 20.62 12.61 20.84 12.61 21.1C12.61 21.7 12.36 22 11.86 22H1.18C0.94 22 0.73 21.93 0.55 21.79C0.37 21.65 0.28 21.46 0.28 21.22ZM13.6844 0.999999C13.6844 0.759999 13.7444 0.55 13.8644 0.37C14.0044 0.17 14.1944 0.0699998 14.4344 0.0699998H26.4644C26.7044 0.0699998 26.8844 0.159999 27.0044 0.339998C27.1444 0.519998 27.2144 0.729998 27.2144 0.969999C27.2144 1.23 27.1444 1.46 27.0044 1.66C26.8844 1.84 26.7044 1.93 26.4644 1.93H21.4544V21.22C21.4544 21.46 21.3544 21.65 21.1544 21.79C20.9544 21.93 20.7244 22 20.4644 22C20.1844 22 19.9444 21.93 19.7444 21.79C19.5644 21.65 19.4744 21.46 19.4744 21.22V1.93H14.4344C14.2144 1.93 14.0344 1.84 13.8944 1.66C13.7544 1.48 13.6844 1.26 13.6844 0.999999Z" fill="#FF7417"/>
</svg>
