<svg width="35" height="18" viewBox="0 0 35 18" fill="none" xmlns="http://www.w3.org/2000/svg">
<path d="M0.104 12.608V10.04C0.104 8.696 0.496 7.608 1.28 6.776C2.064 5.928 3.216 5.504 4.736 5.504C5.696 5.504 6.496 5.68 7.136 6.032C7.792 6.368 8.12 6.712 8.12 7.064C8.12 7.24 8.048 7.416 7.904 7.592C7.76 7.752 7.6 7.832 7.424 7.832C7.328 7.832 7.176 7.76 6.968 7.616C6.776 7.472 6.496 7.328 6.128 7.184C5.76 7.024 5.32 6.944 4.808 6.944C3.784 6.944 3 7.216 2.456 7.76C1.928 8.304 1.664 9.064 1.664 10.04V12.608C1.664 13.6 1.928 14.368 2.456 14.912C3 15.456 3.792 15.728 4.832 15.728C5.376 15.728 5.832 15.656 6.2 15.512C6.584 15.352 6.872 15.2 7.064 15.056C7.272 14.896 7.432 14.816 7.544 14.816C7.752 14.816 7.92 14.896 8.048 15.056C8.192 15.216 8.264 15.392 8.264 15.584C8.264 15.952 7.928 16.312 7.256 16.664C6.584 17 5.752 17.168 4.76 17.168C3.224 17.168 2.064 16.752 1.28 15.92C0.496 15.088 0.104 13.984 0.104 12.608ZM9.58719 14C9.58719 12.768 10.0592 11.912 11.0032 11.432C11.9632 10.952 13.3552 10.712 15.1792 10.712H16.4032V10.136C16.4032 9.256 16.1712 8.496 15.7072 7.856C15.2432 7.2 14.5312 6.872 13.5712 6.872C12.9312 6.872 12.3472 6.992 11.8192 7.232C11.3072 7.456 11.0352 7.568 11.0032 7.568C10.8112 7.568 10.6592 7.48 10.5472 7.304C10.4352 7.128 10.3792 6.936 10.3792 6.728C10.3792 6.424 10.7232 6.144 11.4112 5.888C12.0992 5.632 12.8352 5.504 13.6192 5.504C15.1232 5.504 16.2192 5.944 16.9072 6.824C17.6112 7.688 17.9632 8.792 17.9632 10.136V16.376C17.9632 16.552 17.8912 16.704 17.7472 16.832C17.6032 16.944 17.4192 17 17.1952 17C16.9872 17 16.8112 16.944 16.6672 16.832C16.5392 16.704 16.4752 16.552 16.4752 16.376V15.32C15.4032 16.552 14.1952 17.168 12.8512 17.168C11.8912 17.168 11.1072 16.904 10.4992 16.376C9.89119 15.832 9.58719 15.04 9.58719 14ZM11.1472 13.856C11.1472 14.528 11.3392 15.032 11.7232 15.368C12.1072 15.688 12.6112 15.848 13.2352 15.848C13.9872 15.848 14.6992 15.568 15.3712 15.008C16.0592 14.448 16.4032 13.888 16.4032 13.328V11.792H15.3952C14.7552 11.792 14.2112 11.816 13.7632 11.864C13.3312 11.912 12.8992 12 12.4672 12.128C12.0352 12.256 11.7072 12.464 11.4832 12.752C11.2592 13.04 11.1472 13.408 11.1472 13.856ZM20.9026 16.376V6.224C20.9026 6.064 20.9746 5.928 21.1186 5.816C21.2626 5.704 21.4466 5.648 21.6706 5.648C21.8786 5.648 22.0546 5.704 22.1986 5.816C22.3426 5.928 22.4146 6.064 22.4146 6.224V7.4C22.7026 6.872 23.1266 6.424 23.6866 6.056C24.2466 5.688 24.8946 5.504 25.6306 5.504H26.4706C26.6306 5.504 26.7746 5.576 26.9026 5.72C27.0306 5.864 27.0946 6.032 27.0946 6.224C27.0946 6.416 27.0306 6.584 26.9026 6.728C26.7746 6.872 26.6306 6.944 26.4706 6.944H25.6306C24.7986 6.944 24.0626 7.272 23.4226 7.928C22.7826 8.568 22.4626 9.408 22.4626 10.448V16.376C22.4626 16.536 22.3826 16.68 22.2226 16.808C22.0786 16.936 21.8946 17 21.6706 17C21.4626 17 21.2786 16.936 21.1186 16.808C20.9746 16.68 20.9026 16.536 20.9026 16.376ZM28.7999 13.472V0.823999C28.7999 0.664 28.8799 0.527999 29.0399 0.415999C29.1999 0.303999 29.3759 0.248 29.5679 0.248C29.7759 0.248 29.9599 0.303999 30.1199 0.415999C30.2799 0.527999 30.3599 0.664 30.3599 0.823999V5.648H33.4559C33.6159 5.648 33.7439 5.712 33.8399 5.84C33.9519 5.968 34.0079 6.12 34.0079 6.296C34.0079 6.472 33.9519 6.624 33.8399 6.752C33.7439 6.88 33.6159 6.944 33.4559 6.944H30.3599V13.472C30.3599 14.256 30.5199 14.808 30.8399 15.128C31.1759 15.432 31.7599 15.584 32.5919 15.584H33.2639C33.4719 15.584 33.6399 15.656 33.7679 15.8C33.9119 15.928 33.9839 16.088 33.9839 16.28C33.9839 16.472 33.9119 16.64 33.7679 16.784C33.6399 16.928 33.4719 17 33.2639 17H32.5919C30.0639 17 28.7999 15.824 28.7999 13.472Z" fill="#FF7417"/>
</svg>
