<svg width="9" height="16" viewBox="0 0 9 16" fill="none" xmlns="http://www.w3.org/2000/svg">
<path d="M0.16 10.84V4.64C0.16 3.17333 0.533333 2.1 1.28 1.42C2.04 0.726666 3.05333 0.38 4.32 0.38C5.58667 0.38 6.59333 0.726666 7.34 1.42C8.1 2.1 8.48 3.17333 8.48 4.64V10.84C8.48 12.32 8.1 13.4067 7.34 14.1C6.59333 14.78 5.58667 15.12 4.32 15.12C3.05333 15.12 2.04 14.78 1.28 14.1C0.533333 13.4067 0.16 12.32 0.16 10.84ZM1.48 10.84C1.48 12.88 2.42667 13.9 4.32 13.9C6.21333 13.9 7.16 12.88 7.16 10.84V4.64C7.16 2.61333 6.21333 1.6 4.32 1.6C2.42667 1.6 1.48 2.61333 1.48 4.64V10.84ZM3.6 7.76C3.6 7.54667 3.66667 7.37333 3.8 7.24C3.94667 7.10667 4.12667 7.04 4.34 7.04C4.54 7.04 4.70667 7.10667 4.84 7.24C4.98667 7.37333 5.06 7.54667 5.06 7.76C5.06 7.96 4.98667 8.13333 4.84 8.28C4.70667 8.42667 4.54 8.5 4.34 8.5C4.12667 8.5 3.94667 8.42667 3.8 8.28C3.66667 8.13333 3.6 7.96 3.6 7.76Z" fill="white"/>
</svg>
